<mxfile host="app.diagrams.net" modified="2021-03-03T19:38:31.596Z" agent="5.0 (Macintosh; Intel Mac OS X 11_2_2) AppleWebKit/537.36 (KHTML, like Gecko) Chrome/89.0.4389.72 Safari/537.36" etag="qkAQK8ZYWsE7E6UxR20X" version="14.4.2" type="github" pages="4">
  <diagram id="mENFt5hzagjeAIdPpgN2" name="index.html (Webpage)">
    <mxGraphModel dx="946" dy="517" grid="1" gridSize="10" guides="1" tooltips="1" connect="1" arrows="1" fold="1" page="1" pageScale="1" pageWidth="1100" pageHeight="1700" math="0" shadow="0">
      <root>
        <mxCell id="0" />
        <mxCell id="1" parent="0" />
        <mxCell id="MZLqF50LSz_hDRNjhT2n-1" value="" style="strokeWidth=1;shadow=0;dashed=0;align=center;html=1;shape=mxgraph.mockup.containers.browserWindow;rSize=0;strokeColor=#666666;strokeColor2=#008cff;strokeColor3=#c4c4c4;mainText=,;recursiveResize=0;" parent="1" vertex="1">
          <mxGeometry x="40" y="80" width="780" height="1610" as="geometry" />
        </mxCell>
        <mxCell id="MZLqF50LSz_hDRNjhT2n-2" value="Royal Touristz" style="strokeWidth=1;shadow=0;dashed=0;align=center;html=1;shape=mxgraph.mockup.containers.anchor;fontSize=17;fontColor=#666666;align=left;" parent="MZLqF50LSz_hDRNjhT2n-1" vertex="1">
          <mxGeometry x="60" y="12" width="110" height="26" as="geometry" />
        </mxCell>
        <mxCell id="MZLqF50LSz_hDRNjhT2n-3" value="https://www.royaltouristz.ie" style="strokeWidth=1;shadow=0;dashed=0;align=center;html=1;shape=mxgraph.mockup.containers.anchor;rSize=0;fontSize=17;fontColor=#666666;align=left;" parent="MZLqF50LSz_hDRNjhT2n-1" vertex="1">
          <mxGeometry x="130" y="60" width="250" height="26" as="geometry" />
        </mxCell>
        <mxCell id="MZLqF50LSz_hDRNjhT2n-4" value="Logo" style="html=1;shadow=0;dashed=0;fillColor=#f5f5f5;strokeColor=#666666;fontSize=16;align=left;spacing=15;gradientColor=#b3b3b3;" parent="MZLqF50LSz_hDRNjhT2n-1" vertex="1">
          <mxGeometry y="110" width="780" height="50" as="geometry" />
        </mxCell>
        <mxCell id="MZLqF50LSz_hDRNjhT2n-5" value="Home" style="fillColor=none;strokeColor=none;fontSize=14;align=center;fontColor=#FF3399;" parent="MZLqF50LSz_hDRNjhT2n-4" vertex="1">
          <mxGeometry width="70" height="40" relative="1" as="geometry">
            <mxPoint x="390" y="5" as="offset" />
          </mxGeometry>
        </mxCell>
        <mxCell id="MZLqF50LSz_hDRNjhT2n-6" value="Features" style="fillColor=none;strokeColor=none;fontSize=14;fontColor=#9A9DA0;align=center;" parent="MZLqF50LSz_hDRNjhT2n-4" vertex="1">
          <mxGeometry width="70" height="40" relative="1" as="geometry">
            <mxPoint x="450" y="5" as="offset" />
          </mxGeometry>
        </mxCell>
        <mxCell id="MZLqF50LSz_hDRNjhT2n-7" value="Gallery" style="fillColor=none;strokeColor=none;fontSize=14;fontColor=#9A9DA0;align=center;spacingRight=0;" parent="MZLqF50LSz_hDRNjhT2n-4" vertex="1">
          <mxGeometry width="80" height="40" relative="1" as="geometry">
            <mxPoint x="510" y="5" as="offset" />
          </mxGeometry>
        </mxCell>
        <mxCell id="MZLqF50LSz_hDRNjhT2n-8" value="About" style="fillColor=none;strokeColor=none;fontSize=14;fontColor=#9A9DA0;align=center;" parent="MZLqF50LSz_hDRNjhT2n-4" vertex="1">
          <mxGeometry width="80" height="40" relative="1" as="geometry">
            <mxPoint x="570" y="5" as="offset" />
          </mxGeometry>
        </mxCell>
        <mxCell id="MZLqF50LSz_hDRNjhT2n-11" value="Contact" style="fillColor=none;strokeColor=none;fontSize=14;fontColor=#9A9DA0;align=center;" parent="MZLqF50LSz_hDRNjhT2n-4" vertex="1">
          <mxGeometry x="700" y="5" width="80" height="40" as="geometry" />
        </mxCell>
        <mxCell id="MZLqF50LSz_hDRNjhT2n-50" value="Review" style="fillColor=none;strokeColor=none;fontSize=14;fontColor=#9A9DA0;align=center;" parent="MZLqF50LSz_hDRNjhT2n-4" vertex="1">
          <mxGeometry x="630" y="5" width="80" height="40" as="geometry" />
        </mxCell>
        <mxCell id="MZLqF50LSz_hDRNjhT2n-12" value="&lt;h1&gt;Heading&lt;/h1&gt;&lt;p&gt;Lorem ipsum dolor sit amet, consectetur adipisicing elit, sed do eiusmod tempor incididunt ut labore et dolore magna aliqua.&lt;/p&gt;" style="text;html=1;strokeColor=none;fillColor=none;spacing=5;spacingTop=-20;whiteSpace=wrap;overflow=hidden;rounded=0;fontColor=#FF3399;" parent="MZLqF50LSz_hDRNjhT2n-1" vertex="1">
          <mxGeometry x="120" y="310" width="380" height="120" as="geometry" />
        </mxCell>
        <mxCell id="MZLqF50LSz_hDRNjhT2n-13" value="" style="verticalLabelPosition=bottom;shadow=0;dashed=0;align=center;html=1;verticalAlign=top;strokeWidth=1;shape=mxgraph.mockup.forms.colorPicker;chosenColor=#aaddff;fontColor=#FF3399;" parent="MZLqF50LSz_hDRNjhT2n-1" vertex="1">
          <mxGeometry x="120" y="210" width="590" height="90" as="geometry" />
        </mxCell>
        <mxCell id="MZLqF50LSz_hDRNjhT2n-16" value="HOME" style="text;html=1;strokeColor=none;fillColor=none;align=center;verticalAlign=middle;whiteSpace=wrap;rounded=0;fontColor=#FF3399;fontStyle=5" parent="MZLqF50LSz_hDRNjhT2n-1" vertex="1">
          <mxGeometry x="370" y="180" width="40" height="20" as="geometry" />
        </mxCell>
        <mxCell id="MZLqF50LSz_hDRNjhT2n-17" value="Feature" style="text;html=1;strokeColor=none;fillColor=none;align=center;verticalAlign=middle;whiteSpace=wrap;rounded=0;fontColor=#FF3399;fontStyle=5" parent="MZLqF50LSz_hDRNjhT2n-1" vertex="1">
          <mxGeometry x="370" y="420" width="60" height="20" as="geometry" />
        </mxCell>
        <mxCell id="MZLqF50LSz_hDRNjhT2n-18" value="" style="whiteSpace=wrap;html=1;aspect=fixed;fontColor=#FF3399;" parent="MZLqF50LSz_hDRNjhT2n-1" vertex="1">
          <mxGeometry x="130" y="480" width="120" height="120" as="geometry" />
        </mxCell>
        <mxCell id="MZLqF50LSz_hDRNjhT2n-20" value="" style="whiteSpace=wrap;html=1;aspect=fixed;fontColor=#FF3399;" parent="MZLqF50LSz_hDRNjhT2n-1" vertex="1">
          <mxGeometry x="590" y="480" width="120" height="120" as="geometry" />
        </mxCell>
        <mxCell id="MZLqF50LSz_hDRNjhT2n-19" value="" style="whiteSpace=wrap;html=1;aspect=fixed;fontColor=#FF3399;" parent="MZLqF50LSz_hDRNjhT2n-1" vertex="1">
          <mxGeometry x="355" y="480" width="120" height="120" as="geometry" />
        </mxCell>
        <mxCell id="MZLqF50LSz_hDRNjhT2n-21" value="Gallery" style="text;html=1;strokeColor=none;fillColor=none;align=center;verticalAlign=middle;whiteSpace=wrap;rounded=0;fontColor=#FF3399;fontStyle=5" parent="MZLqF50LSz_hDRNjhT2n-1" vertex="1">
          <mxGeometry x="380" y="630" width="60" height="20" as="geometry" />
        </mxCell>
        <mxCell id="MZLqF50LSz_hDRNjhT2n-23" value="" style="rounded=1;whiteSpace=wrap;html=1;fontColor=#FF3399;" parent="MZLqF50LSz_hDRNjhT2n-1" vertex="1">
          <mxGeometry x="170" y="670" width="480" height="140" as="geometry" />
        </mxCell>
        <mxCell id="MZLqF50LSz_hDRNjhT2n-24" value="" style="triangle;whiteSpace=wrap;html=1;fontColor=#FF3399;" parent="MZLqF50LSz_hDRNjhT2n-1" vertex="1">
          <mxGeometry x="615" y="715" width="30" height="50" as="geometry" />
        </mxCell>
        <mxCell id="MZLqF50LSz_hDRNjhT2n-25" value="" style="triangle;whiteSpace=wrap;html=1;fontColor=#FF3399;rotation=-180;" parent="MZLqF50LSz_hDRNjhT2n-1" vertex="1">
          <mxGeometry x="175" y="715" width="40" height="50" as="geometry" />
        </mxCell>
        <mxCell id="MZLqF50LSz_hDRNjhT2n-26" value="About" style="text;html=1;strokeColor=none;fillColor=none;align=center;verticalAlign=middle;whiteSpace=wrap;rounded=0;fontColor=#FF3399;fontStyle=5" parent="MZLqF50LSz_hDRNjhT2n-1" vertex="1">
          <mxGeometry x="385" y="830" width="60" height="20" as="geometry" />
        </mxCell>
        <mxCell id="MZLqF50LSz_hDRNjhT2n-27" value="" style="verticalLabelPosition=bottom;shadow=0;dashed=0;align=center;html=1;verticalAlign=top;strokeWidth=1;shape=mxgraph.mockup.graphics.simpleIcon;strokeColor=#999999;fontColor=#FF3399;" parent="MZLqF50LSz_hDRNjhT2n-1" vertex="1">
          <mxGeometry x="90" y="890" width="320" height="250" as="geometry" />
        </mxCell>
        <mxCell id="MZLqF50LSz_hDRNjhT2n-28" value="&lt;h1&gt;About Us&lt;/h1&gt;&lt;p&gt;Lorem ipsum dolor sit amet, consectetur adipisicing elit, sed do eiusmod tempor incididunt ut labore et dolore magna aliqua.&lt;/p&gt;" style="text;html=1;strokeColor=none;fillColor=none;spacing=5;spacingTop=-20;whiteSpace=wrap;overflow=hidden;rounded=0;fontColor=#FF3399;" parent="MZLqF50LSz_hDRNjhT2n-1" vertex="1">
          <mxGeometry x="430" y="930" width="295" height="160" as="geometry" />
        </mxCell>
        <mxCell id="MZLqF50LSz_hDRNjhT2n-29" value="Get Started" style="rounded=1;html=1;shadow=0;dashed=0;whiteSpace=wrap;fontSize=10;fillColor=#E6E6E6;align=center;strokeColor=#B3B3B3;fontColor=#333333;" parent="MZLqF50LSz_hDRNjhT2n-1" vertex="1">
          <mxGeometry x="440" y="1050" width="105.5" height="16.88" as="geometry" />
        </mxCell>
        <mxCell id="MZLqF50LSz_hDRNjhT2n-30" value="Review" style="text;html=1;strokeColor=none;fillColor=none;align=center;verticalAlign=middle;whiteSpace=wrap;rounded=0;fontColor=#FF3399;fontStyle=5" parent="MZLqF50LSz_hDRNjhT2n-1" vertex="1">
          <mxGeometry x="380" y="1180" width="40" height="20" as="geometry" />
        </mxCell>
        <mxCell id="MZLqF50LSz_hDRNjhT2n-31" value="" style="whiteSpace=wrap;html=1;aspect=fixed;fontColor=#FF3399;" parent="MZLqF50LSz_hDRNjhT2n-1" vertex="1">
          <mxGeometry x="110" y="1230" width="120" height="120" as="geometry" />
        </mxCell>
        <mxCell id="MZLqF50LSz_hDRNjhT2n-32" value="" style="whiteSpace=wrap;html=1;aspect=fixed;fontColor=#FF3399;" parent="MZLqF50LSz_hDRNjhT2n-1" vertex="1">
          <mxGeometry x="570" y="1230" width="120" height="120" as="geometry" />
        </mxCell>
        <mxCell id="MZLqF50LSz_hDRNjhT2n-33" value="" style="whiteSpace=wrap;html=1;aspect=fixed;fontColor=#FF3399;" parent="MZLqF50LSz_hDRNjhT2n-1" vertex="1">
          <mxGeometry x="335" y="1230" width="120" height="120" as="geometry" />
        </mxCell>
        <mxCell id="MZLqF50LSz_hDRNjhT2n-34" value="Contact" style="text;html=1;strokeColor=none;fillColor=none;align=center;verticalAlign=middle;whiteSpace=wrap;rounded=0;fontColor=#FF3399;fontStyle=5" parent="MZLqF50LSz_hDRNjhT2n-1" vertex="1">
          <mxGeometry x="375" y="1360" width="40" height="20" as="geometry" />
        </mxCell>
        <mxCell id="MZLqF50LSz_hDRNjhT2n-35" value="" style="rounded=1;whiteSpace=wrap;html=1;fontColor=#FF3399;" parent="MZLqF50LSz_hDRNjhT2n-1" vertex="1">
          <mxGeometry y="1580" width="780" height="30" as="geometry" />
        </mxCell>
        <mxCell id="MZLqF50LSz_hDRNjhT2n-36" value="" style="verticalLabelPosition=bottom;shadow=0;dashed=0;align=center;html=1;verticalAlign=top;strokeWidth=1;shape=mxgraph.mockup.misc.map;fontColor=#FF3399;" parent="MZLqF50LSz_hDRNjhT2n-1" vertex="1">
          <mxGeometry x="55" y="1497" width="670" height="80" as="geometry" />
        </mxCell>
        <mxCell id="MZLqF50LSz_hDRNjhT2n-37" value="Google Map" style="text;html=1;strokeColor=none;fillColor=none;align=center;verticalAlign=middle;whiteSpace=wrap;rounded=0;fontColor=#FF3399;" parent="MZLqF50LSz_hDRNjhT2n-1" vertex="1">
          <mxGeometry x="350" y="1477" width="100" height="20" as="geometry" />
        </mxCell>
        <mxCell id="MZLqF50LSz_hDRNjhT2n-38" value="" style="verticalLabelPosition=bottom;shadow=0;dashed=0;align=center;html=1;verticalAlign=top;strokeWidth=1;shape=mxgraph.mockup.graphics.simpleIcon;strokeColor=#999999;fontColor=#FF3399;" parent="MZLqF50LSz_hDRNjhT2n-1" vertex="1">
          <mxGeometry x="110" y="1397" width="230" height="80" as="geometry" />
        </mxCell>
        <mxCell id="MZLqF50LSz_hDRNjhT2n-42" value="" style="verticalLabelPosition=bottom;shadow=0;dashed=0;align=center;html=1;verticalAlign=top;strokeWidth=1;shape=mxgraph.mockup.graphics.simpleIcon;strokeColor=#999999;fontColor=#FF3399;" parent="MZLqF50LSz_hDRNjhT2n-1" vertex="1">
          <mxGeometry x="430" y="1390" width="230" height="80" as="geometry" />
        </mxCell>
        <mxCell id="MZLqF50LSz_hDRNjhT2n-43" value="Email Form" style="text;html=1;strokeColor=none;fillColor=none;align=center;verticalAlign=middle;whiteSpace=wrap;rounded=0;fontColor=#FF3399;" parent="MZLqF50LSz_hDRNjhT2n-1" vertex="1">
          <mxGeometry x="510" y="1397" width="70" height="20" as="geometry" />
        </mxCell>
        <mxCell id="MZLqF50LSz_hDRNjhT2n-44" value="Office Address &amp;amp; Contact no" style="text;html=1;strokeColor=none;fillColor=none;align=center;verticalAlign=middle;whiteSpace=wrap;rounded=0;fontColor=#FF3399;" parent="MZLqF50LSz_hDRNjhT2n-1" vertex="1">
          <mxGeometry x="160" y="1400" width="130" height="20" as="geometry" />
        </mxCell>
        <mxCell id="MZLqF50LSz_hDRNjhT2n-45" value="Flight search form" style="text;html=1;strokeColor=none;fillColor=none;align=center;verticalAlign=middle;whiteSpace=wrap;rounded=0;fontColor=#FF3399;" parent="MZLqF50LSz_hDRNjhT2n-1" vertex="1">
          <mxGeometry x="335" y="220" width="150" height="20" as="geometry" />
        </mxCell>
        <mxCell id="MZLqF50LSz_hDRNjhT2n-46" value="Copyright text" style="text;html=1;strokeColor=none;fillColor=none;align=center;verticalAlign=middle;whiteSpace=wrap;rounded=0;fontColor=#FF3399;" parent="MZLqF50LSz_hDRNjhT2n-1" vertex="1">
          <mxGeometry x="30" y="1585" width="150" height="20" as="geometry" />
        </mxCell>
        <mxCell id="MZLqF50LSz_hDRNjhT2n-48" value="Social Media links" style="text;html=1;strokeColor=none;fillColor=none;align=center;verticalAlign=middle;whiteSpace=wrap;rounded=0;fontColor=#FF3399;" parent="MZLqF50LSz_hDRNjhT2n-1" vertex="1">
          <mxGeometry x="615" y="1585" width="150" height="20" as="geometry" />
        </mxCell>
        <mxCell id="MZLqF50LSz_hDRNjhT2n-49" value="Footer" style="text;html=1;strokeColor=none;fillColor=none;align=center;verticalAlign=middle;whiteSpace=wrap;rounded=0;fontColor=#FF3399;fontStyle=5" parent="MZLqF50LSz_hDRNjhT2n-1" vertex="1">
          <mxGeometry x="350" y="1577" width="40" height="20" as="geometry" />
        </mxCell>
      </root>
    </mxGraphModel>
  </diagram>
  <diagram id="Oegj2vicefWGnCeFHMZz" name="flight.html (webpage)">
    <mxGraphModel dx="946" dy="517" grid="1" gridSize="10" guides="1" tooltips="1" connect="1" arrows="1" fold="1" page="1" pageScale="1" pageWidth="1100" pageHeight="1700" math="0" shadow="0">
      <root>
        <mxCell id="xH3yDfBfhg5yQMBPfsrU-0" />
        <mxCell id="xH3yDfBfhg5yQMBPfsrU-1" parent="xH3yDfBfhg5yQMBPfsrU-0" />
        <mxCell id="oZMdNW7ThQj8eFDzeuXb-1" value="" style="strokeWidth=1;shadow=0;dashed=0;align=center;html=1;shape=mxgraph.mockup.containers.browserWindow;rSize=0;strokeColor=#666666;strokeColor2=#008cff;strokeColor3=#c4c4c4;mainText=,;recursiveResize=0;" vertex="1" parent="xH3yDfBfhg5yQMBPfsrU-1">
          <mxGeometry x="130" y="80" width="780" height="560" as="geometry" />
        </mxCell>
        <mxCell id="oZMdNW7ThQj8eFDzeuXb-2" value="Royal Touristz" style="strokeWidth=1;shadow=0;dashed=0;align=center;html=1;shape=mxgraph.mockup.containers.anchor;fontSize=17;fontColor=#666666;align=left;" vertex="1" parent="oZMdNW7ThQj8eFDzeuXb-1">
          <mxGeometry x="60" y="12" width="110" height="26" as="geometry" />
        </mxCell>
        <mxCell id="oZMdNW7ThQj8eFDzeuXb-3" value="https://www.royaltouristz.ie" style="strokeWidth=1;shadow=0;dashed=0;align=center;html=1;shape=mxgraph.mockup.containers.anchor;rSize=0;fontSize=17;fontColor=#666666;align=left;" vertex="1" parent="oZMdNW7ThQj8eFDzeuXb-1">
          <mxGeometry x="130" y="60" width="250" height="26" as="geometry" />
        </mxCell>
        <mxCell id="57nGEn7_Vumw_g4DWGs_-1" value="" style="strokeWidth=1;shadow=0;dashed=0;align=center;html=1;shape=mxgraph.mockup.containers.anchor;rSize=0;fontSize=17;fontColor=#666666;align=left;" vertex="1" parent="oZMdNW7ThQj8eFDzeuXb-1">
          <mxGeometry x="50" y="60" width="250" height="26" as="geometry" />
        </mxCell>
        <mxCell id="57nGEn7_Vumw_g4DWGs_-2" value="Logo" style="html=1;shadow=0;dashed=0;fillColor=#f5f5f5;strokeColor=#666666;fontSize=16;align=left;spacing=15;gradientColor=#b3b3b3;" vertex="1" parent="oZMdNW7ThQj8eFDzeuXb-1">
          <mxGeometry y="110" width="780" height="50" as="geometry" />
        </mxCell>
        <mxCell id="57nGEn7_Vumw_g4DWGs_-3" value="Home" style="fillColor=none;strokeColor=none;fontSize=14;align=center;fontColor=#FF3399;" vertex="1" parent="57nGEn7_Vumw_g4DWGs_-2">
          <mxGeometry width="70" height="40" relative="1" as="geometry">
            <mxPoint x="390" y="5" as="offset" />
          </mxGeometry>
        </mxCell>
        <mxCell id="57nGEn7_Vumw_g4DWGs_-4" value="Features" style="fillColor=none;strokeColor=none;fontSize=14;fontColor=#9A9DA0;align=center;" vertex="1" parent="57nGEn7_Vumw_g4DWGs_-2">
          <mxGeometry width="70" height="40" relative="1" as="geometry">
            <mxPoint x="450" y="5" as="offset" />
          </mxGeometry>
        </mxCell>
        <mxCell id="57nGEn7_Vumw_g4DWGs_-5" value="Gallery" style="fillColor=none;strokeColor=none;fontSize=14;fontColor=#9A9DA0;align=center;spacingRight=0;" vertex="1" parent="57nGEn7_Vumw_g4DWGs_-2">
          <mxGeometry width="80" height="40" relative="1" as="geometry">
            <mxPoint x="510" y="5" as="offset" />
          </mxGeometry>
        </mxCell>
        <mxCell id="57nGEn7_Vumw_g4DWGs_-6" value="About" style="fillColor=none;strokeColor=none;fontSize=14;fontColor=#9A9DA0;align=center;" vertex="1" parent="57nGEn7_Vumw_g4DWGs_-2">
          <mxGeometry width="80" height="40" relative="1" as="geometry">
            <mxPoint x="570" y="5" as="offset" />
          </mxGeometry>
        </mxCell>
        <mxCell id="57nGEn7_Vumw_g4DWGs_-7" value="Contact" style="fillColor=none;strokeColor=none;fontSize=14;fontColor=#9A9DA0;align=center;" vertex="1" parent="57nGEn7_Vumw_g4DWGs_-2">
          <mxGeometry x="700" y="5" width="80" height="40" as="geometry" />
        </mxCell>
        <mxCell id="57nGEn7_Vumw_g4DWGs_-8" value="Review" style="fillColor=none;strokeColor=none;fontSize=14;fontColor=#9A9DA0;align=center;" vertex="1" parent="57nGEn7_Vumw_g4DWGs_-2">
          <mxGeometry x="630" y="5" width="80" height="40" as="geometry" />
        </mxCell>
        <mxCell id="ABdjcjhgfYxKOfzqIuLg-0" value="Flight Information" style="text;html=1;strokeColor=none;fillColor=none;align=center;verticalAlign=middle;whiteSpace=wrap;rounded=0;strokeWidth=6;fontSize=24;" vertex="1" parent="oZMdNW7ThQj8eFDzeuXb-1">
          <mxGeometry x="235" y="170" width="310" height="40" as="geometry" />
        </mxCell>
        <mxCell id="ABdjcjhgfYxKOfzqIuLg-2" value="" style="verticalLabelPosition=bottom;shadow=0;dashed=0;align=center;html=1;verticalAlign=top;strokeWidth=1;shape=mxgraph.mockup.graphics.simpleIcon;strokeColor=#999999;fontSize=24;" vertex="1" parent="oZMdNW7ThQj8eFDzeuXb-1">
          <mxGeometry x="110" y="220" width="570" height="80" as="geometry" />
        </mxCell>
        <mxCell id="ABdjcjhgfYxKOfzqIuLg-3" value="" style="verticalLabelPosition=bottom;shadow=0;dashed=0;align=center;html=1;verticalAlign=top;strokeWidth=1;shape=mxgraph.mockup.graphics.simpleIcon;strokeColor=#999999;fontSize=24;" vertex="1" parent="oZMdNW7ThQj8eFDzeuXb-1">
          <mxGeometry x="110" y="320" width="570" height="80" as="geometry" />
        </mxCell>
        <mxCell id="ABdjcjhgfYxKOfzqIuLg-4" value="" style="verticalLabelPosition=bottom;shadow=0;dashed=0;align=center;html=1;verticalAlign=top;strokeWidth=1;shape=mxgraph.mockup.graphics.simpleIcon;strokeColor=#999999;fontSize=24;" vertex="1" parent="oZMdNW7ThQj8eFDzeuXb-1">
          <mxGeometry x="110" y="420" width="570" height="80" as="geometry" />
        </mxCell>
        <mxCell id="ABdjcjhgfYxKOfzqIuLg-5" value="" style="labelPosition=right;align=left;strokeWidth=1;shape=mxgraph.mockup.markup.curlyBrace;html=1;shadow=0;dashed=0;strokeColor=#999999;direction=north;fontSize=24;" vertex="1" parent="oZMdNW7ThQj8eFDzeuXb-1">
          <mxGeometry x="70" y="260" width="20" height="220" as="geometry" />
        </mxCell>
        <mxCell id="ABdjcjhgfYxKOfzqIuLg-6" value="Top 10 cheap Flight search result" style="text;html=1;strokeColor=none;fillColor=none;align=center;verticalAlign=middle;whiteSpace=wrap;rounded=0;fontSize=24;rotation=-90;" vertex="1" parent="oZMdNW7ThQj8eFDzeuXb-1">
          <mxGeometry x="-80" y="305" width="220" height="110" as="geometry" />
        </mxCell>
        <mxCell id="57nGEn7_Vumw_g4DWGs_-0" value="" style="strokeWidth=1;shadow=0;dashed=0;align=center;html=1;shape=mxgraph.mockup.containers.anchor;fontSize=17;fontColor=#666666;align=left;" vertex="1" parent="xH3yDfBfhg5yQMBPfsrU-1">
          <mxGeometry x="200" y="20" width="110" height="26" as="geometry" />
        </mxCell>
      </root>
    </mxGraphModel>
  </diagram>
  <diagram id="kRGXCZxGyBw7UFp8zMrI" name="Index.html (Mobile)">
    <mxGraphModel dx="946" dy="517" grid="1" gridSize="10" guides="1" tooltips="1" connect="1" arrows="1" fold="1" page="1" pageScale="1" pageWidth="1100" pageHeight="1700" math="0" shadow="0">
      <root>
        <mxCell id="YX2uZilICakXbmPhPvKJ-0" />
        <mxCell id="YX2uZilICakXbmPhPvKJ-1" parent="YX2uZilICakXbmPhPvKJ-0" />
        <mxCell id="YX2uZilICakXbmPhPvKJ-2" value="" style="html=1;verticalLabelPosition=bottom;labelBackgroundColor=#ffffff;verticalAlign=top;shadow=0;dashed=0;strokeWidth=1;shape=mxgraph.ios7.misc.iphone;strokeColor=#c0c0c0;fontColor=#FF3399;" parent="YX2uZilICakXbmPhPvKJ-1" vertex="1">
          <mxGeometry x="360" y="40" width="200" height="1850" as="geometry" />
        </mxCell>
        <mxCell id="YX2uZilICakXbmPhPvKJ-3" value="" style="rounded=0;whiteSpace=wrap;html=1;fontColor=#FF3399;" parent="YX2uZilICakXbmPhPvKJ-1" vertex="1">
          <mxGeometry x="560" y="310" width="160" height="90" as="geometry" />
        </mxCell>
        <mxCell id="YX2uZilICakXbmPhPvKJ-4" value="Home" style="text;html=1;strokeColor=none;fillColor=none;align=center;verticalAlign=middle;whiteSpace=wrap;rounded=0;fontColor=#FF3399;" parent="YX2uZilICakXbmPhPvKJ-1" vertex="1">
          <mxGeometry x="616" y="310" width="40" height="20" as="geometry" />
        </mxCell>
        <mxCell id="YX2uZilICakXbmPhPvKJ-5" value="About" style="text;html=1;strokeColor=none;fillColor=none;align=center;verticalAlign=middle;whiteSpace=wrap;rounded=0;fontColor=#FF3399;" parent="YX2uZilICakXbmPhPvKJ-1" vertex="1">
          <mxGeometry x="615" y="356.25" width="40" height="18.25" as="geometry" />
        </mxCell>
        <mxCell id="YX2uZilICakXbmPhPvKJ-6" value="Gallery" style="text;html=1;strokeColor=none;fillColor=none;align=center;verticalAlign=middle;whiteSpace=wrap;rounded=0;fontColor=#FF3399;" parent="YX2uZilICakXbmPhPvKJ-1" vertex="1">
          <mxGeometry x="616" y="340" width="40" height="20" as="geometry" />
        </mxCell>
        <mxCell id="YX2uZilICakXbmPhPvKJ-7" value="Feature" style="text;html=1;strokeColor=none;fillColor=none;align=center;verticalAlign=middle;whiteSpace=wrap;rounded=0;fontColor=#FF3399;" parent="YX2uZilICakXbmPhPvKJ-1" vertex="1">
          <mxGeometry x="616" y="325" width="40" height="20" as="geometry" />
        </mxCell>
        <mxCell id="YX2uZilICakXbmPhPvKJ-8" value="Review" style="text;html=1;strokeColor=none;fillColor=none;align=center;verticalAlign=middle;whiteSpace=wrap;rounded=0;fontColor=#FF3399;" parent="YX2uZilICakXbmPhPvKJ-1" vertex="1">
          <mxGeometry x="616" y="385.5" width="40" height="10" as="geometry" />
        </mxCell>
        <mxCell id="YX2uZilICakXbmPhPvKJ-9" value="Contact" style="text;html=1;strokeColor=none;fillColor=none;align=center;verticalAlign=middle;whiteSpace=wrap;rounded=0;fontColor=#FF3399;" parent="YX2uZilICakXbmPhPvKJ-1" vertex="1">
          <mxGeometry x="616" y="367" width="40" height="20" as="geometry" />
        </mxCell>
        <mxCell id="YX2uZilICakXbmPhPvKJ-11" value="" style="html=1;verticalLabelPosition=bottom;labelBackgroundColor=#ffffff;verticalAlign=top;shadow=0;dashed=0;strokeWidth=2;shape=mxgraph.ios7.misc.options;fillColor=#222222;fontColor=#FF3399;" parent="YX2uZilICakXbmPhPvKJ-1" vertex="1">
          <mxGeometry x="527.5" y="318.25" width="20" height="20" as="geometry" />
        </mxCell>
        <mxCell id="mvs-dw2c27N4CgtiLA2T-0" value="Logo" style="text;html=1;strokeColor=none;fillColor=none;align=center;verticalAlign=middle;whiteSpace=wrap;rounded=0;fontColor=#FF3399;" parent="YX2uZilICakXbmPhPvKJ-1" vertex="1">
          <mxGeometry x="380" y="318.25" width="40" height="20" as="geometry" />
        </mxCell>
        <mxCell id="sQdAOYASdIRfOIvUWmN1-0" value="&lt;h1 style=&quot;font-size: 8px;&quot;&gt;Heading&lt;/h1&gt;&lt;p style=&quot;font-size: 8px;&quot;&gt;Lorem ipsum dolor sit amet, consectetur adipisicing elit, sed do eiusmod tempor incididunt ut labore et dolore magna aliqua.&lt;/p&gt;" style="text;html=1;strokeColor=none;fillColor=none;spacing=5;spacingTop=-20;whiteSpace=wrap;overflow=hidden;rounded=0;fontColor=#FF3399;fontSize=8;" parent="YX2uZilICakXbmPhPvKJ-1" vertex="1">
          <mxGeometry x="385.5" y="436" width="130" height="54" as="geometry" />
        </mxCell>
        <mxCell id="sQdAOYASdIRfOIvUWmN1-2" value="HOME" style="text;html=1;strokeColor=none;fillColor=none;align=center;verticalAlign=middle;whiteSpace=wrap;rounded=0;fontColor=#FF3399;fontStyle=5" parent="YX2uZilICakXbmPhPvKJ-1" vertex="1">
          <mxGeometry x="447.5" y="349" width="35" height="12" as="geometry" />
        </mxCell>
        <mxCell id="sQdAOYASdIRfOIvUWmN1-3" value="Feature" style="text;html=1;strokeColor=none;fillColor=none;align=center;verticalAlign=middle;whiteSpace=wrap;rounded=0;fontColor=#FF3399;fontStyle=5" parent="YX2uZilICakXbmPhPvKJ-1" vertex="1">
          <mxGeometry x="425" y="500" width="60" height="20" as="geometry" />
        </mxCell>
        <mxCell id="sQdAOYASdIRfOIvUWmN1-4" value="" style="whiteSpace=wrap;html=1;aspect=fixed;fontColor=#FF3399;" parent="YX2uZilICakXbmPhPvKJ-1" vertex="1">
          <mxGeometry x="375" y="545" width="80" height="80" as="geometry" />
        </mxCell>
        <mxCell id="sQdAOYASdIRfOIvUWmN1-5" value="" style="whiteSpace=wrap;html=1;aspect=fixed;fontColor=#FF3399;" parent="YX2uZilICakXbmPhPvKJ-1" vertex="1">
          <mxGeometry x="420" y="635" width="80" height="80" as="geometry" />
        </mxCell>
        <mxCell id="sQdAOYASdIRfOIvUWmN1-6" value="" style="whiteSpace=wrap;html=1;aspect=fixed;fontColor=#FF3399;" parent="YX2uZilICakXbmPhPvKJ-1" vertex="1">
          <mxGeometry x="465" y="545" width="80" height="80" as="geometry" />
        </mxCell>
        <mxCell id="sQdAOYASdIRfOIvUWmN1-7" value="Gallery" style="text;html=1;strokeColor=none;fillColor=none;align=center;verticalAlign=middle;whiteSpace=wrap;rounded=0;fontColor=#FF3399;fontStyle=5" parent="YX2uZilICakXbmPhPvKJ-1" vertex="1">
          <mxGeometry x="430" y="730" width="60" height="20" as="geometry" />
        </mxCell>
        <mxCell id="sQdAOYASdIRfOIvUWmN1-8" value="" style="rounded=1;whiteSpace=wrap;html=1;fontColor=#FF3399;" parent="YX2uZilICakXbmPhPvKJ-1" vertex="1">
          <mxGeometry x="380" y="750" width="160" height="90" as="geometry" />
        </mxCell>
        <mxCell id="sQdAOYASdIRfOIvUWmN1-9" value="About" style="text;html=1;strokeColor=none;fillColor=none;align=center;verticalAlign=middle;whiteSpace=wrap;rounded=0;fontColor=#FF3399;fontStyle=5" parent="YX2uZilICakXbmPhPvKJ-1" vertex="1">
          <mxGeometry x="430" y="980" width="60" height="20" as="geometry" />
        </mxCell>
        <mxCell id="sQdAOYASdIRfOIvUWmN1-10" value="" style="verticalLabelPosition=bottom;shadow=0;dashed=0;align=center;html=1;verticalAlign=top;strokeWidth=1;shape=mxgraph.mockup.graphics.simpleIcon;strokeColor=#999999;fontColor=#FF3399;" parent="YX2uZilICakXbmPhPvKJ-1" vertex="1">
          <mxGeometry x="385" y="1110" width="140" height="90" as="geometry" />
        </mxCell>
        <mxCell id="sQdAOYASdIRfOIvUWmN1-11" value="&lt;h1 style=&quot;font-size: 10px;&quot;&gt;About Us&lt;/h1&gt;&lt;p style=&quot;font-size: 10px;&quot;&gt;Lorem ipsum dolor sit amet, consectetur adipisicing elit, sed do eiusmod tempor incididunt ut labore et dolore magna aliqua.&lt;/p&gt;" style="text;html=1;strokeColor=none;fillColor=none;spacing=5;spacingTop=-20;whiteSpace=wrap;overflow=hidden;rounded=0;fontColor=#FF3399;fontSize=10;" parent="YX2uZilICakXbmPhPvKJ-1" vertex="1">
          <mxGeometry x="380.5" y="1220" width="155" height="70" as="geometry" />
        </mxCell>
        <mxCell id="sQdAOYASdIRfOIvUWmN1-12" value="Get Started" style="rounded=1;html=1;shadow=0;dashed=0;whiteSpace=wrap;fontSize=10;fillColor=#E6E6E6;align=center;strokeColor=#B3B3B3;fontColor=#333333;" parent="YX2uZilICakXbmPhPvKJ-1" vertex="1">
          <mxGeometry x="385" y="1300" width="105.5" height="16.88" as="geometry" />
        </mxCell>
        <mxCell id="sQdAOYASdIRfOIvUWmN1-17" value="Contact" style="text;html=1;strokeColor=none;fillColor=none;align=center;verticalAlign=middle;whiteSpace=wrap;rounded=0;fontColor=#FF3399;fontStyle=5" parent="YX2uZilICakXbmPhPvKJ-1" vertex="1">
          <mxGeometry x="440" y="1330" width="40" height="20" as="geometry" />
        </mxCell>
        <mxCell id="sQdAOYASdIRfOIvUWmN1-18" value="" style="rounded=1;whiteSpace=wrap;html=1;fontColor=#FF3399;" parent="YX2uZilICakXbmPhPvKJ-1" vertex="1">
          <mxGeometry x="370" y="1592" width="180" height="20" as="geometry" />
        </mxCell>
        <mxCell id="sQdAOYASdIRfOIvUWmN1-19" value="" style="verticalLabelPosition=bottom;shadow=0;dashed=0;align=center;html=1;verticalAlign=top;strokeWidth=1;shape=mxgraph.mockup.misc.map;fontColor=#FF3399;" parent="YX2uZilICakXbmPhPvKJ-1" vertex="1">
          <mxGeometry x="380" y="1550" width="160" height="40" as="geometry" />
        </mxCell>
        <mxCell id="sQdAOYASdIRfOIvUWmN1-20" value="Google Map" style="text;html=1;strokeColor=none;fillColor=none;align=center;verticalAlign=middle;whiteSpace=wrap;rounded=0;fontColor=#FF3399;" parent="YX2uZilICakXbmPhPvKJ-1" vertex="1">
          <mxGeometry x="407.5" y="1533" width="100" height="20" as="geometry" />
        </mxCell>
        <mxCell id="sQdAOYASdIRfOIvUWmN1-21" value="" style="verticalLabelPosition=bottom;shadow=0;dashed=0;align=center;html=1;verticalAlign=top;strokeWidth=1;shape=mxgraph.mockup.graphics.simpleIcon;strokeColor=#999999;fontColor=#FF3399;" parent="YX2uZilICakXbmPhPvKJ-1" vertex="1">
          <mxGeometry x="380" y="1366" width="165" height="84" as="geometry" />
        </mxCell>
        <mxCell id="sQdAOYASdIRfOIvUWmN1-22" value="" style="verticalLabelPosition=bottom;shadow=0;dashed=0;align=center;html=1;verticalAlign=top;strokeWidth=1;shape=mxgraph.mockup.graphics.simpleIcon;strokeColor=#999999;fontColor=#FF3399;" parent="YX2uZilICakXbmPhPvKJ-1" vertex="1">
          <mxGeometry x="380" y="1453" width="165" height="80" as="geometry" />
        </mxCell>
        <mxCell id="sQdAOYASdIRfOIvUWmN1-23" value="Email Form" style="text;html=1;strokeColor=none;fillColor=none;align=center;verticalAlign=middle;whiteSpace=wrap;rounded=0;fontColor=#FF3399;" parent="YX2uZilICakXbmPhPvKJ-1" vertex="1">
          <mxGeometry x="430" y="1460" width="70" height="20" as="geometry" />
        </mxCell>
        <mxCell id="sQdAOYASdIRfOIvUWmN1-24" value="Office Address &amp;amp; Contact no" style="text;html=1;strokeColor=none;fillColor=none;align=center;verticalAlign=middle;whiteSpace=wrap;rounded=0;fontColor=#FF3399;" parent="YX2uZilICakXbmPhPvKJ-1" vertex="1">
          <mxGeometry x="397.5" y="1370" width="130" height="20" as="geometry" />
        </mxCell>
        <mxCell id="sQdAOYASdIRfOIvUWmN1-26" value="Copyright text" style="text;html=1;strokeColor=none;fillColor=none;align=center;verticalAlign=middle;whiteSpace=wrap;rounded=0;fontColor=#FF3399;" parent="YX2uZilICakXbmPhPvKJ-1" vertex="1">
          <mxGeometry x="332.5" y="1592" width="150" height="20" as="geometry" />
        </mxCell>
        <mxCell id="sQdAOYASdIRfOIvUWmN1-27" value="Social Media links" style="text;html=1;strokeColor=none;fillColor=none;align=center;verticalAlign=middle;whiteSpace=wrap;rounded=0;fontColor=#FF3399;" parent="YX2uZilICakXbmPhPvKJ-1" vertex="1">
          <mxGeometry x="465" y="1590" width="150" height="20" as="geometry" />
        </mxCell>
        <mxCell id="sQdAOYASdIRfOIvUWmN1-28" value="Footer" style="text;html=1;strokeColor=none;fillColor=none;align=center;verticalAlign=middle;whiteSpace=wrap;rounded=0;fontColor=#FF3399;fontStyle=5" parent="YX2uZilICakXbmPhPvKJ-1" vertex="1">
          <mxGeometry x="442.5" y="1612" width="40" height="20" as="geometry" />
        </mxCell>
        <mxCell id="1KRxrCe0TKidbENG5URg-0" value="" style="triangle;whiteSpace=wrap;html=1;fontColor=#FF3399;" parent="YX2uZilICakXbmPhPvKJ-1" vertex="1">
          <mxGeometry x="513" y="780" width="22.5" height="30" as="geometry" />
        </mxCell>
        <mxCell id="1KRxrCe0TKidbENG5URg-1" value="" style="triangle;whiteSpace=wrap;html=1;fontColor=#FF3399;rotation=-180;" parent="YX2uZilICakXbmPhPvKJ-1" vertex="1">
          <mxGeometry x="385" y="780" width="25" height="30" as="geometry" />
        </mxCell>
        <mxCell id="1KRxrCe0TKidbENG5URg-2" value="Review" style="text;html=1;strokeColor=none;fillColor=none;align=center;verticalAlign=middle;whiteSpace=wrap;rounded=0;fontColor=#FF3399;fontStyle=5" parent="YX2uZilICakXbmPhPvKJ-1" vertex="1">
          <mxGeometry x="427.5" y="850" width="60" height="20" as="geometry" />
        </mxCell>
        <mxCell id="1KRxrCe0TKidbENG5URg-3" value="" style="whiteSpace=wrap;html=1;aspect=fixed;fontColor=#FF3399;" parent="YX2uZilICakXbmPhPvKJ-1" vertex="1">
          <mxGeometry x="375" y="885" width="80" height="80" as="geometry" />
        </mxCell>
        <mxCell id="1KRxrCe0TKidbENG5URg-4" value="" style="whiteSpace=wrap;html=1;aspect=fixed;fontColor=#FF3399;" parent="YX2uZilICakXbmPhPvKJ-1" vertex="1">
          <mxGeometry x="420" y="975" width="80" height="80" as="geometry" />
        </mxCell>
        <mxCell id="1KRxrCe0TKidbENG5URg-5" value="" style="whiteSpace=wrap;html=1;aspect=fixed;fontColor=#FF3399;" parent="YX2uZilICakXbmPhPvKJ-1" vertex="1">
          <mxGeometry x="465" y="885" width="80" height="80" as="geometry" />
        </mxCell>
        <mxCell id="1KRxrCe0TKidbENG5URg-6" value="About" style="text;html=1;strokeColor=none;fillColor=none;align=center;verticalAlign=middle;whiteSpace=wrap;rounded=0;fontColor=#FF3399;fontStyle=5" parent="YX2uZilICakXbmPhPvKJ-1" vertex="1">
          <mxGeometry x="430" y="1080" width="60" height="20" as="geometry" />
        </mxCell>
        <mxCell id="1KRxrCe0TKidbENG5URg-8" value="" style="verticalLabelPosition=bottom;shadow=0;dashed=0;align=center;html=1;verticalAlign=top;strokeWidth=1;shape=mxgraph.mockup.graphics.simpleIcon;strokeColor=#999999;fontColor=#FF3399;" parent="YX2uZilICakXbmPhPvKJ-1" vertex="1">
          <mxGeometry x="382.5" y="369" width="160" height="50" as="geometry" />
        </mxCell>
        <mxCell id="1KRxrCe0TKidbENG5URg-9" value="Flight search form" style="text;html=1;strokeColor=none;fillColor=none;align=center;verticalAlign=middle;whiteSpace=wrap;rounded=0;fontColor=#FF3399;" parent="YX2uZilICakXbmPhPvKJ-1" vertex="1">
          <mxGeometry x="422.5" y="379" width="75" height="13" as="geometry" />
        </mxCell>
        <mxCell id="1KRxrCe0TKidbENG5URg-10" value="Image" style="text;html=1;strokeColor=none;fillColor=none;align=center;verticalAlign=middle;whiteSpace=wrap;rounded=0;fontSize=10;fontColor=#FF3399;" parent="YX2uZilICakXbmPhPvKJ-1" vertex="1">
          <mxGeometry x="435" y="1120" width="40" height="20" as="geometry" />
        </mxCell>
      </root>
    </mxGraphModel>
  </diagram>
  <diagram id="W1xvNmd1zmVH1WvSRQ8x" name="flight.html (Mobile)">
    <mxGraphModel dx="946" dy="517" grid="1" gridSize="10" guides="1" tooltips="1" connect="1" arrows="1" fold="1" page="1" pageScale="1" pageWidth="1100" pageHeight="1700" math="0" shadow="0">
      <root>
        <mxCell id="BaCHTCqVV7cH_omiAq7c-0" />
        <mxCell id="BaCHTCqVV7cH_omiAq7c-1" parent="BaCHTCqVV7cH_omiAq7c-0" />
        <mxCell id="h4xs2vnN2AP9EP2Pd71d-0" value="" style="rounded=0;whiteSpace=wrap;html=1;fontColor=#FF3399;" vertex="1" parent="BaCHTCqVV7cH_omiAq7c-1">
          <mxGeometry x="604" y="100" width="160" height="90" as="geometry" />
        </mxCell>
        <mxCell id="BaCHTCqVV7cH_omiAq7c-2" value="" style="html=1;verticalLabelPosition=bottom;labelBackgroundColor=#ffffff;verticalAlign=top;shadow=0;dashed=0;strokeWidth=1;shape=mxgraph.ios7.misc.iphone;strokeColor=#c0c0c0;fontSize=24;" vertex="1" parent="BaCHTCqVV7cH_omiAq7c-1">
          <mxGeometry x="400" y="40" width="200" height="450" as="geometry" />
        </mxCell>
        <mxCell id="oB9Aixts7lVgtW5-2Gqu-0" value="Home" style="text;html=1;strokeColor=none;fillColor=none;align=center;verticalAlign=middle;whiteSpace=wrap;rounded=0;fontColor=#FF3399;" vertex="1" parent="BaCHTCqVV7cH_omiAq7c-1">
          <mxGeometry x="656" y="100" width="40" height="20" as="geometry" />
        </mxCell>
        <mxCell id="oB9Aixts7lVgtW5-2Gqu-1" value="About" style="text;html=1;strokeColor=none;fillColor=none;align=center;verticalAlign=middle;whiteSpace=wrap;rounded=0;fontColor=#FF3399;" vertex="1" parent="BaCHTCqVV7cH_omiAq7c-1">
          <mxGeometry x="655" y="146.25" width="40" height="18.25" as="geometry" />
        </mxCell>
        <mxCell id="oB9Aixts7lVgtW5-2Gqu-2" value="Gallery" style="text;html=1;strokeColor=none;fillColor=none;align=center;verticalAlign=middle;whiteSpace=wrap;rounded=0;fontColor=#FF3399;" vertex="1" parent="BaCHTCqVV7cH_omiAq7c-1">
          <mxGeometry x="656" y="130" width="40" height="20" as="geometry" />
        </mxCell>
        <mxCell id="oB9Aixts7lVgtW5-2Gqu-3" value="Feature" style="text;html=1;strokeColor=none;fillColor=none;align=center;verticalAlign=middle;whiteSpace=wrap;rounded=0;fontColor=#FF3399;" vertex="1" parent="BaCHTCqVV7cH_omiAq7c-1">
          <mxGeometry x="656" y="115" width="40" height="20" as="geometry" />
        </mxCell>
        <mxCell id="oB9Aixts7lVgtW5-2Gqu-4" value="Review" style="text;html=1;strokeColor=none;fillColor=none;align=center;verticalAlign=middle;whiteSpace=wrap;rounded=0;fontColor=#FF3399;" vertex="1" parent="BaCHTCqVV7cH_omiAq7c-1">
          <mxGeometry x="656" y="175.5" width="40" height="10" as="geometry" />
        </mxCell>
        <mxCell id="oB9Aixts7lVgtW5-2Gqu-5" value="Contact" style="text;html=1;strokeColor=none;fillColor=none;align=center;verticalAlign=middle;whiteSpace=wrap;rounded=0;fontColor=#FF3399;" vertex="1" parent="BaCHTCqVV7cH_omiAq7c-1">
          <mxGeometry x="656" y="157" width="40" height="20" as="geometry" />
        </mxCell>
        <mxCell id="oB9Aixts7lVgtW5-2Gqu-6" value="" style="html=1;verticalLabelPosition=bottom;labelBackgroundColor=#ffffff;verticalAlign=top;shadow=0;dashed=0;strokeWidth=2;shape=mxgraph.ios7.misc.options;fillColor=#222222;fontColor=#FF3399;" vertex="1" parent="BaCHTCqVV7cH_omiAq7c-1">
          <mxGeometry x="567.5" y="108.25" width="20" height="20" as="geometry" />
        </mxCell>
        <mxCell id="oB9Aixts7lVgtW5-2Gqu-7" value="Logo" style="text;html=1;strokeColor=none;fillColor=none;align=center;verticalAlign=middle;whiteSpace=wrap;rounded=0;fontColor=#FF3399;" vertex="1" parent="BaCHTCqVV7cH_omiAq7c-1">
          <mxGeometry x="420" y="108.25" width="40" height="20" as="geometry" />
        </mxCell>
        <mxCell id="nQH2SzArOCENpoYnwi98-0" value="Flight Information" style="text;html=1;strokeColor=none;fillColor=none;align=center;verticalAlign=middle;whiteSpace=wrap;rounded=0;strokeWidth=6;fontSize=14;" vertex="1" parent="BaCHTCqVV7cH_omiAq7c-1">
          <mxGeometry x="435" y="150" width="135" height="40" as="geometry" />
        </mxCell>
        <mxCell id="nQH2SzArOCENpoYnwi98-3" value="" style="verticalLabelPosition=bottom;shadow=0;dashed=0;align=center;html=1;verticalAlign=top;strokeWidth=1;shape=mxgraph.mockup.graphics.simpleIcon;strokeColor=#999999;fontSize=14;" vertex="1" parent="BaCHTCqVV7cH_omiAq7c-1">
          <mxGeometry x="435" y="205" width="130" height="80" as="geometry" />
        </mxCell>
        <mxCell id="nQH2SzArOCENpoYnwi98-4" value="Top 10 cheap Flight search result" style="text;html=1;strokeColor=none;fillColor=none;align=center;verticalAlign=middle;whiteSpace=wrap;rounded=0;fontSize=14;rotation=-90;" vertex="1" parent="BaCHTCqVV7cH_omiAq7c-1">
          <mxGeometry x="280" y="260" width="220" height="110" as="geometry" />
        </mxCell>
        <mxCell id="nQH2SzArOCENpoYnwi98-6" value="" style="verticalLabelPosition=bottom;shadow=0;dashed=0;align=center;html=1;verticalAlign=top;strokeWidth=1;shape=mxgraph.mockup.graphics.simpleIcon;strokeColor=#999999;fontSize=14;" vertex="1" parent="BaCHTCqVV7cH_omiAq7c-1">
          <mxGeometry x="435" y="310" width="130" height="80" as="geometry" />
        </mxCell>
        <mxCell id="nQH2SzArOCENpoYnwi98-7" value="" style="labelPosition=right;align=left;strokeWidth=1;shape=mxgraph.mockup.markup.curlyBrace;html=1;shadow=0;dashed=0;strokeColor=#999999;direction=north;fontSize=14;" vertex="1" parent="BaCHTCqVV7cH_omiAq7c-1">
          <mxGeometry x="410" y="220" width="20" height="160" as="geometry" />
        </mxCell>
      </root>
    </mxGraphModel>
  </diagram>
</mxfile>
